PathFileType	4	(X/Y/Z)	D:\TRACE\v60_Jaco2_6-2-23\BothDRS_Motion3_6-v60.trc
DataRate	CameraRate	NumFrames	NumMarkers	Units	OrigDataRate	OrigDataStartFrame	OrigNumFrames
100.00	100.00	      38	9	mm	100.00	2626	      7000
Frame#	Time	front left toe			Front right toe			aft left toe			aft right toe			Arm			FL body			FR body			AL Body			AR Body			
		X1	Y1	Z1	X2	Y2	Z2	X3	Y3	Z3	X4	Y4	Z4	X5	Y5	Z5	X6	Y6	Z6	X7	Y7	Z7	X8	Y8	Z8	X9	Y9	Z9	

2626	26.250	-165.36903	33.68658	-174.62608	222.80185	127.61463	-175.42003	-154.44997	71.83090	441.49927	201.06270	-23.87203	451.91821	103.40593	1157.81116	-495.39691	-37.75790	550.74066	-342.08490	120.71961	546.58051	-338.57138	-55.04174	498.26352	600.62012	96.00918	485.81628	604.18604	
2627	26.260	-165.76062	33.73344	-174.67621	224.20105	139.10229	-174.92188	-155.60783	84.17169	440.99911	200.78506	-23.84536	452.03342	102.79960	1157.50732	-496.61404	-37.75887	550.43884	-341.97308	120.70156	546.44250	-338.32419	-55.04087	498.02567	600.80353	96.14644	485.67551	604.40979	
2628	26.270	-166.05603	33.74213	-174.76801	224.46500	150.04362	-174.38994	-155.54706	95.07958	440.94214	200.56822	-23.92701	452.09460	102.05415	1157.37830	-497.87177	-37.93097	550.21515	-341.93140	120.63625	546.25708	-338.06845	-54.98048	498.13510	601.19788	96.61525	485.59286	604.79834	
2629	26.280	-166.34874	33.82043	-174.69174	225.70940	158.33485	-173.64255	-155.80820	104.48075	440.87137	200.20882	-24.02807	452.02496	101.92408	1157.28406	-499.05838	-37.96113	549.88544	-341.53748	120.21033	545.81750	-337.20157	-54.83265	498.34744	601.40173	96.66434	485.65305	605.06348	
2630	26.290	-166.56299	33.67258	-174.59560	227.93521	163.96931	-171.89369	-156.84688	110.62029	441.70892	199.96001	-23.95105	452.26044	102.07204	1156.75415	-500.50742	-38.15528	549.64117	-341.12793	120.22467	545.22662	-336.99222	-54.74765	498.42169	601.75580	96.60399	485.75790	605.40918	
2631	26.300	-166.89388	33.62037	-174.54216	228.81241	166.04631	-170.27979	-158.21767	114.30455	442.68777	199.62350	-23.96546	452.24011	102.17086	1156.19214	-501.72855	-38.25054	549.33490	-340.56223	119.75365	545.04962	-336.76749	-54.01859	498.68430	602.49768	97.53487	485.62708	605.06787	
2632	26.310	-167.14323	33.74174	-174.50943	229.68291	165.31758	-168.43764	-159.43199	114.20971	444.66254	199.32169	-23.94483	452.19916	102.63715	1155.44678	-503.19080	-38.41292	549.16907	-340.23761	119.52480	544.81604	-336.48862	-53.31748	498.77975	603.05188	98.10829	485.84692	605.47211	
2633	26.320	-167.41962	33.76836	-174.50696	230.96727	161.81165	-167.06065	-160.12302	112.04645	446.26282	199.04478	-23.84787	452.09369	102.92229	1154.91711	-504.70007	-38.67484	549.01984	-339.85757	119.80726	544.45447	-336.51208	-52.81120	499.22748	603.45654	98.93343	486.22626	605.72748	
2634	26.330	-167.77922	33.70347	-174.53516	232.04700	157.80264	-165.44489	-160.09892	108.63427	448.06882	198.79567	-23.86595	452.08121	103.19321	1154.36304	-506.02594	-39.01488	548.66168	-339.30865	119.83281	544.10803	-336.07025	-52.22430	499.92014	604.21503	98.61818	486.62201	606.11163	
2635	26.340	-168.17296	33.70068	-174.40144	232.39902	152.30663	-164.15781	-159.90796	104.62419	449.66562	198.41353	-23.82134	452.04138	103.16926	1153.89307	-507.19638	-39.09167	548.31110	-338.79269	119.30151	543.83691	-335.55646	-51.75087	500.21167	604.71313	99.62894	486.86551	606.49554	
2636	26.350	-168.50360	33.59825	-174.33124	231.79021	145.50742	-163.45377	-158.88138	98.38445	451.67993	198.14018	-23.78352	452.01471	103.07275	1153.56262	-508.58170	-39.10661	548.07080	-338.34283	119.16751	543.40942	-335.16501	-51.06866	500.46371	604.78650	100.52885	487.08987	606.78192	
2637	26.360	-168.79584	33.61018	-174.28004	232.38904	138.37762	-162.93718	-158.37708	91.61508	453.45593	197.97803	-23.80219	451.97562	103.33129	1153.18066	-509.56876	-39.12579	547.99335	-338.12445	118.83920	543.11823	-335.07166	-50.18870	500.69455	605.10870	101.09798	487.15933	606.99634	
2638	26.370	-169.06108	33.62782	-174.26450	231.64279	128.97978	-163.06396	-158.51814	84.73307	453.84711	197.86203	-23.82376	451.95956	103.64729	1152.78174	-510.75299	-39.32429	547.93494	-337.90732	118.50299	542.95776	-335.07678	-49.27578	501.19687	605.64642	100.87652	487.90930	608.29944	
2639	26.380	-169.30440	33.68350	-174.27049	232.18167	119.63985	-162.63190	-158.26526	76.26933	454.62228	197.60837	-23.90488	451.92001	103.83670	1152.54858	-511.59399	-39.60016	547.79364	-337.71588	118.37611	542.78748	-335.00864	-48.37581	501.14648	605.67133	103.03526	487.59836	608.14978	
2640	26.390	-169.56790	33.67890	-174.24464	233.04744	109.88985	-162.22610	-157.64258	67.30946	454.93683	197.48523	-23.96574	451.94370	104.51896	1152.19922	-512.50269	-39.81570	547.55511	-337.43311	118.20868	542.54474	-335.04388	-47.50731	500.90753	605.56732	103.69765	487.50171	608.12585	
2641	26.400	-169.74811	33.47782	-174.20290	233.48688	100.02765	-162.10838	-156.84615	58.11908	455.20212	197.40810	-23.94036	451.87506	105.01677	1151.75806	-513.30780	-39.88689	547.27985	-337.09979	118.12666	542.06293	-335.20645	-46.58426	501.01227	605.78790	104.99764	487.48825	608.14655	
2642	26.410	-170.01628	33.44901	-174.13808	233.74457	90.54655	-162.73222	-154.80484	48.81076	454.62717	197.09631	-23.96136	451.83127	105.42296	1151.49109	-514.08173	-39.91014	547.05585	-337.00711	118.76088	541.50568	-335.40884	-45.44096	501.16727	606.00922	106.24248	487.41373	608.16095	
2643	26.420	-170.17760	33.48884	-174.14903	234.39082	81.19312	-163.28888	-153.47810	40.28668	454.70389	197.00891	-23.91685	451.81055	105.73978	1151.35803	-515.00037	-39.85690	546.94000	-337.16379	118.83290	541.17340	-335.60126	-44.61370	501.23486	606.35828	106.56332	487.18039	607.98669	
2644	26.430	-170.37648	33.52170	-174.20784	232.35515	71.85744	-164.55540	-152.20113	31.81581	453.73557	196.78528	-24.06482	451.77249	106.13178	1151.06360	-515.73224	-39.80555	546.72180	-337.36893	118.86555	540.95203	-335.89496	-43.33680	501.01758	606.18848	108.11353	486.74158	606.45825	
2645	26.440	-170.67653	33.51438	-174.15526	232.56453	63.76719	-165.67285	-150.77039	22.84625	453.49939	196.74466	-23.96580	451.75989	106.48962	1150.73169	-516.35101	-39.70903	546.65131	-337.64294	118.28111	540.78418	-335.99069	-42.41578	501.05466	605.87097	108.71256	486.61673	606.19666	
2646	26.450	-170.96425	33.42743	-174.09950	233.26984	56.30623	-166.54555	-149.66496	15.51817	452.29913	196.59883	-24.01785	451.70108	106.78233	1150.52014	-517.27893	-39.65460	546.48462	-338.03394	118.15492	540.58276	-336.59064	-41.64788	500.94919	605.49304	109.97411	486.42847	605.65814	
2647	26.460	-171.25697	33.36130	-174.09431	233.79854	51.37240	-168.26018	-149.11789	9.14405	451.36124	196.40228	-23.97863	451.60117	106.68385	1150.26404	-517.84564	-39.34567	546.14856	-338.29163	118.79278	540.26770	-337.35138	-40.56435	500.90646	605.39124	110.97546	486.15680	605.20886	
2648	26.470	-171.42462	33.34374	-174.10982	236.54201	47.61282	-169.42177	-148.07343	3.20897	450.18790	196.21713	-23.93829	451.54767	107.03827	1149.86487	-518.48285	-39.30234	545.92377	-338.63980	118.72601	540.02997	-337.41183	-39.42144	500.94254	604.60376	112.37411	486.02682	604.72839	
2649	26.480	-171.50127	33.33205	-174.18111	237.69884	43.00761	-171.02574	-146.51460	-3.55977	448.98386	196.07109	-23.92261	451.52063	106.46156	1149.86743	-519.76080	-39.14202	545.82056	-339.21320	119.27551	539.53198	-337.93796	-38.31418	500.93283	604.40436	113.53162	485.95520	604.09900	
2650	26.490	-171.60411	33.36951	-174.25415	237.32256	38.01504	-172.93248	-146.09460	-9.78404	447.66611	195.99953	-23.94091	451.36136	106.47386	1149.65857	-520.71698	-38.86411	545.66138	-340.03726	119.49046	539.42804	-339.04874	-37.33556	500.80905	603.51355	114.48622	486.09927	603.43652	
2651	26.500	-171.69197	33.31359	-174.30724	238.73506	35.92623	-174.22452	-145.45187	-16.64435	446.22870	195.92543	-23.89679	451.31284	106.96095	1149.29321	-521.61969	-38.47779	545.46802	-340.51566	120.25311	539.22357	-339.86377	-35.78171	500.84787	603.03021	116.35976	486.05145	602.76483	
2652	26.510	-171.72275	33.28537	-174.36613	238.96593	35.09046	-174.56436	-145.17113	-17.55226	444.59229	195.82382	-23.79180	451.08698	106.70192	1149.37488	-523.05908	-38.18654	545.58282	-340.86496	120.02894	539.52814	-340.30823	-34.95445	501.25046	602.50836	117.97693	486.22507	601.84827	
2653	26.520	-171.70476	33.27311	-174.56921	238.74281	34.71352	-174.53622	-146.03629	-18.23181	444.51697	195.76654	-23.50274	450.60718	106.75378	1149.42175	-523.94006	-37.92007	545.78259	-341.28879	120.02023	539.87585	-341.13651	-33.37606	502.82159	602.02795	119.73205	487.37372	601.09039	
2654	26.530	-171.37747	33.92450	-174.81154	237.58235	33.45373	-174.78082	-145.53757	-17.85699	445.14212	195.58807	-22.28318	450.15649	106.19476	1149.84204	-525.47650	-37.89637	546.08649	-342.03735	120.08157	539.77850	-341.70688	-32.04618	504.47852	601.43054	120.41006	489.30246	600.89838	
2655	26.540	-169.64793	36.76966	-174.33530	237.66064	32.97056	-174.88925	-145.62027	-18.80952	445.37927	193.85860	-19.86500	452.18674	106.48559	1150.04199	-527.32324	-37.81872	546.35553	-342.33759	120.71856	539.96576	-342.33844	-30.80908	506.32858	601.55658	120.58366	490.75043	600.53577	
2656	26.550	-165.78377	40.64904	-171.15569	237.68057	32.88209	-174.88469	-145.35260	-18.29820	445.98743	191.84381	-16.46892	456.13699	106.05559	1149.83020	-529.09882	-37.59127	546.76532	-342.47498	120.79229	540.47754	-342.89407	-29.91236	507.26566	601.27545	121.89295	491.78506	599.99805	
2657	26.560	-160.48836	46.18734	-168.45857	237.47952	32.66045	-175.10753	-145.73132	-17.82022	445.78970	189.55583	-5.41196	455.80508	106.09630	1148.95984	-530.36523	-37.54967	547.10669	-342.79633	121.08594	540.50696	-343.32266	-28.66104	507.54462	600.67786	122.85001	492.23889	599.70111	
2658	26.570	-159.49754	58.02213	-169.39488	237.48074	32.43925	-175.19537	-145.62889	-17.76911	446.03293	187.99858	4.26603	455.83328	105.80222	1148.42859	-530.85004	-37.38129	547.08118	-343.05695	120.91755	540.55365	-343.52344	-28.20491	508.73843	601.50629	123.70213	492.67377	599.28882	
2659	26.580	-159.46808	69.39317	-170.08328	237.57808	32.31120	-175.19801	-145.54576	-17.74390	445.74356	189.33777	18.71112	453.16977	106.05171	1148.30042	-531.45508	-36.86143	546.79828	-343.40704	121.12569	540.33948	-343.85208	-27.98989	508.95154	601.37439	123.77190	492.96579	599.14441	
2660	26.590	-160.15404	82.02325	-171.74512	237.38026	31.66949	-175.42235	-145.46593	-17.52957	445.08347	192.39438	31.23927	451.61136	106.15160	1148.37891	-531.75549	-36.23735	546.31293	-343.84558	122.15997	539.73029	-344.25284	-27.89206	509.09616	601.00470	123.43530	492.93964	598.90692	
2661	26.600	-160.12978	95.65775	-173.42966	237.35214	31.46590	-175.44565	-145.65881	-17.48394	445.10626	197.16267	45.16186	449.89145	106.33832	1148.30420	-531.89362	-35.76757	545.85010	-344.29401	123.03730	539.29803	-344.36880	-28.16413	508.98846	600.56830	123.15697	492.65857	598.64825	
2662	26.610	-159.55898	108.86723	-174.14926	237.24974	31.19037	-175.44255	-146.01306	-17.60987	445.41919	202.81789	58.36876	449.21091	107.17529	1147.77100	-531.79926	-35.36576	545.41333	-344.50061	123.59862	538.79810	-344.51242	-28.42285	508.67538	600.35248	123.23216	492.35757	598.44440	
2663	26.620	-157.91077	120.93127	-174.84782	237.30833	30.97566	-175.44011	-146.07378	-17.47925	445.39618	206.10591	71.33210	448.38651	107.81528	1147.42102	-532.02710	-34.93271	544.81342	-344.41663	123.82071	538.57349	-344.60071	-28.69927	508.35651	600.24640	122.98286	492.14728	598.39203	
